<?xml version="1.0" encoding="UTF-8" standalone="no"?><!DOCTYPE svg PUBLIC "-//W3C//DTD SVG 1.1//EN" "http://www.w3.org/Graphics/SVG/1.1/DTD/svg11.dtd"><svg width="100%" height="100%" viewBox="0 0 512 512" version="1.1" xmlns="http://www.w3.org/2000/svg" xmlns:xlink="http://www.w3.org/1999/xlink" xml:space="preserve" xmlns:serif="http://www.serif.com/" style="fill-rule:evenodd;clip-rule:evenodd;stroke-linejoin:round;stroke-miterlimit:2;"><g><path d="M8.857,245.964c0,-1.761 0.619,-3.294 1.859,-4.598c1.239,-1.305 2.772,-1.957 4.598,-1.957c1.761,0 3.294,0.652 4.598,1.957c1.305,1.304 1.957,2.837 1.957,4.598c0,1.827 -0.652,3.359 -1.957,4.599c-1.304,1.239 -2.837,1.859 -4.598,1.859c-1.826,0 -3.359,-0.62 -4.598,-1.859c-1.24,-1.24 -1.859,-2.772 -1.859,-4.599Z" style="fill-rule:nonzero;"/><path d="M39.969,188.143l0,14.871l7.533,0l0,3.424l-7.533,0l0,29.84c0,0.783 0.033,1.68 0.098,2.691c0.065,1.011 0.244,1.973 0.538,2.886c0.293,0.913 0.75,1.68 1.37,2.299c0.619,0.62 1.483,0.93 2.592,0.93c1.761,0 3.441,-0.881 5.039,-2.642c1.598,-1.761 2.853,-4.435 3.767,-8.022l3.62,0c-1.109,4.109 -2.3,7.354 -3.571,9.734c-1.272,2.381 -2.593,4.191 -3.963,5.43c-1.37,1.24 -2.723,2.039 -4.06,2.397c-1.337,0.359 -2.56,0.538 -3.669,0.538c-2.348,0 -4.272,-0.44 -5.772,-1.32c-1.501,-0.881 -2.675,-2.006 -3.522,-3.376c-0.848,-1.37 -1.435,-2.886 -1.762,-4.549c-0.326,-1.663 -0.489,-3.31 -0.489,-4.941l0,-31.895l-3.326,0l0,-3.424l3.326,0l0,-13.502l9.784,-1.369Z" style="fill-rule:nonzero;"/><path d="M71.081,202.525c2.544,0 4.729,0.391 6.555,1.174c1.826,0.783 3.327,1.875 4.501,3.277c1.174,1.403 2.103,3.05 2.788,4.941c0.685,1.892 1.19,3.914 1.516,6.066l0.587,0c2.74,0 5.251,-0.554 7.534,-1.663c2.283,-1.109 4.239,-2.511 5.87,-4.207l1.468,2.641c-1.305,2.088 -3.376,3.816 -6.213,5.186c-2.837,1.369 -5.756,2.315 -8.756,2.837l0.097,4.011c0,8.023 -1.467,14.317 -4.402,18.883c-2.935,4.566 -7.044,6.848 -12.328,6.848c-2.152,0 -4.321,-0.391 -6.506,-1.174c-2.185,-0.782 -4.158,-2.087 -5.919,-3.913c-1.761,-1.826 -3.18,-4.175 -4.256,-7.044c-1.076,-2.87 -1.614,-6.425 -1.614,-10.665c0,-2.869 0.31,-5.902 0.929,-9.098c0.62,-3.196 1.664,-6.132 3.131,-8.806c1.468,-2.674 3.424,-4.892 5.87,-6.653c2.446,-1.761 5.495,-2.641 9.148,-2.641Zm0.978,42.559c3.457,0 6.001,-1.712 7.632,-5.137c1.63,-3.424 2.446,-8.267 2.446,-14.528l0,-1.174c0,-0.392 -0.033,-0.783 -0.098,-1.175c-1.892,-0.13 -3.245,-0.554 -4.06,-1.271c-0.816,-0.718 -1.223,-1.925 -1.223,-3.62c0,-1.501 0.326,-2.56 0.978,-3.18c0.652,-0.62 1.631,-0.962 2.935,-1.027c-0.783,-2.283 -1.777,-3.865 -2.984,-4.745c-1.207,-0.881 -2.56,-1.321 -4.06,-1.321c-2.022,0 -3.734,0.668 -5.137,2.005c-1.402,1.338 -2.543,3.05 -3.424,5.137c-0.88,2.087 -1.516,4.386 -1.908,6.897c-0.391,2.512 -0.587,4.974 -0.587,7.387c0,3.196 0.294,5.805 0.881,7.827c0.587,2.022 1.337,3.62 2.25,4.794c0.913,1.174 1.924,1.989 3.033,2.446c1.109,0.456 2.218,0.685 3.326,0.685Z" style="fill-rule:nonzero;"/><path d="M130.272,183.447l0,52.831c0,0.653 0.033,1.468 0.098,2.446c0.065,0.979 0.245,1.941 0.538,2.887c0.294,0.945 0.734,1.761 1.321,2.445c0.587,0.685 1.402,1.028 2.446,1.028c3.196,0 5.544,-3.555 7.044,-10.664l3.62,0c-0.717,4.109 -1.63,7.354 -2.739,9.734c-1.109,2.381 -2.283,4.191 -3.522,5.43c-1.24,1.24 -2.512,2.039 -3.816,2.397c-1.304,0.359 -2.479,0.538 -3.522,0.538c-1.5,0 -2.788,-0.261 -3.865,-0.782c-1.076,-0.522 -1.989,-1.207 -2.739,-2.055c-0.75,-0.848 -1.354,-1.826 -1.81,-2.935c-0.457,-1.109 -0.815,-2.283 -1.076,-3.522c-0.979,2.544 -2.56,4.729 -4.745,6.555c-2.185,1.826 -4.843,2.739 -7.974,2.739c-1.957,0 -3.93,-0.391 -5.919,-1.174c-1.99,-0.782 -3.783,-2.071 -5.381,-3.864c-1.598,-1.794 -2.903,-4.109 -3.914,-6.947c-1.011,-2.837 -1.516,-6.31 -1.516,-10.419c0,-3.001 0.342,-6.131 1.027,-9.393c0.685,-3.261 1.777,-6.229 3.278,-8.903c1.5,-2.674 3.424,-4.892 5.772,-6.653c2.348,-1.761 5.185,-2.641 8.512,-2.641c0.783,0 1.614,0.081 2.495,0.244c0.88,0.163 1.728,0.441 2.543,0.832c0.816,0.391 1.582,0.929 2.3,1.614c0.717,0.685 1.304,1.517 1.761,2.495l0,-22.894l9.783,-1.369Zm-18.295,61.637c0.978,0 1.973,-0.277 2.984,-0.832c1.011,-0.554 1.924,-1.304 2.739,-2.25c0.816,-0.946 1.484,-2.071 2.006,-3.375c0.522,-1.305 0.783,-2.707 0.783,-4.207l0,-22.307c-0.457,-1.044 -1.158,-2.006 -2.104,-2.886c-0.946,-0.881 -2.169,-1.321 -3.669,-1.321c-2.087,0 -3.881,0.701 -5.381,2.103c-1.5,1.403 -2.707,3.164 -3.62,5.283c-0.913,2.12 -1.581,4.436 -2.005,6.947c-0.424,2.511 -0.636,4.908 -0.636,7.191c0,5.609 0.766,9.621 2.299,12.034c1.533,2.413 3.734,3.62 6.604,3.62Z" style="fill-rule:nonzero;"/><path d="M177.723,183.447l0,52.831c0,0.783 0.033,1.68 0.098,2.691c0.065,1.011 0.245,1.973 0.538,2.886c0.294,0.913 0.75,1.68 1.37,2.299c0.619,0.62 1.516,0.93 2.69,0.93c0.522,0 1.093,-0.065 1.712,-0.196c0.62,-0.13 1.126,-0.261 1.517,-0.391c0.065,0.326 0.114,0.619 0.147,0.88c0.032,0.261 0.049,0.555 0.049,0.881c0,1.957 -0.75,3.489 -2.251,4.598c-1.5,1.109 -3.196,1.663 -5.087,1.663c-2.022,0 -3.848,-0.701 -5.479,-2.103c-1.631,-1.402 -2.739,-3.767 -3.326,-7.093c-0.979,2.543 -2.577,4.712 -4.794,6.506c-2.218,1.794 -4.892,2.69 -8.023,2.69c-1.957,0 -3.93,-0.407 -5.919,-1.223c-1.99,-0.815 -3.767,-2.103 -5.332,-3.864c-1.566,-1.761 -2.854,-4.044 -3.865,-6.849c-1.011,-2.804 -1.516,-6.196 -1.516,-10.175c0,-3.065 0.342,-6.245 1.027,-9.539c0.685,-3.294 1.761,-6.294 3.229,-9.001c1.467,-2.707 3.375,-4.941 5.723,-6.702c2.348,-1.761 5.153,-2.641 8.414,-2.641c1.696,0 3.441,0.359 5.234,1.076c1.794,0.717 3.147,2.087 4.061,4.109l0,-22.894l9.783,-1.369Zm-18.784,61.637c1.239,0 2.413,-0.294 3.522,-0.881c1.108,-0.587 2.071,-1.369 2.886,-2.348c0.815,-0.978 1.451,-2.103 1.908,-3.375c0.456,-1.272 0.685,-2.625 0.685,-4.06l0,-22.307c-0.457,-1.109 -1.142,-2.087 -2.055,-2.935c-0.913,-0.848 -2.218,-1.272 -3.914,-1.272c-2.087,0 -3.848,0.701 -5.283,2.103c-1.435,1.403 -2.609,3.18 -3.522,5.332c-0.913,2.153 -1.582,4.55 -2.006,7.191c-0.423,2.642 -0.635,5.169 -0.635,7.583c0,5.283 0.815,9.099 2.445,11.447c1.631,2.348 3.62,3.522 5.969,3.522Z" style="fill-rule:nonzero;"/><path d="M208.346,275.022c-1.37,0.391 -2.805,0.587 -4.305,0.587c-2.283,0 -4.207,-0.457 -5.772,-1.37c-1.565,-0.913 -2.805,-2.054 -3.718,-3.424c-0.913,-1.37 -1.565,-2.886 -1.957,-4.55c-0.391,-1.663 -0.587,-3.277 -0.587,-4.842c0,-2.088 0.278,-4.24 0.832,-6.458c0.554,-2.217 1.158,-4.419 1.81,-6.604c0.652,-2.185 1.256,-4.305 1.81,-6.359c0.554,-2.055 0.832,-4.028 0.832,-5.919c0,-0.783 -0.066,-1.566 -0.196,-2.348c-0.131,-0.783 -0.391,-1.484 -0.783,-2.104c-0.391,-0.619 -0.913,-1.125 -1.565,-1.516c-0.652,-0.392 -1.5,-0.587 -2.544,-0.587c-0.848,0 -1.859,0.098 -3.033,0.293l0,-5.479c1.174,0.196 2.185,0.294 3.033,0.294c1.044,0 1.892,-0.196 2.544,-0.587c0.652,-0.391 1.174,-0.897 1.565,-1.517c0.392,-0.619 0.652,-1.32 0.783,-2.103c0.13,-0.783 0.196,-1.565 0.196,-2.348c0,-1.826 -0.278,-3.783 -0.832,-5.87c-0.554,-2.088 -1.158,-4.224 -1.81,-6.409c-0.652,-2.185 -1.256,-4.386 -1.81,-6.604c-0.554,-2.217 -0.832,-4.37 -0.832,-6.457c0,-1.565 0.196,-3.18 0.587,-4.843c0.392,-1.663 1.044,-3.18 1.957,-4.549c0.913,-1.37 2.153,-2.511 3.718,-3.425c1.565,-0.913 3.489,-1.369 5.772,-1.369c1.5,0 2.935,0.195 4.305,0.587l0,4.598c-0.522,-0.065 -1.027,-0.147 -1.516,-0.244c-0.49,-0.098 -0.962,-0.147 -1.419,-0.147c-1.5,0 -2.756,0.244 -3.767,0.734c-1.011,0.489 -1.81,1.174 -2.397,2.054c-0.587,0.881 -1.011,1.908 -1.272,3.082c-0.26,1.174 -0.391,2.446 -0.391,3.816c0,2.348 0.277,4.696 0.832,7.044c0.554,2.348 1.157,4.68 1.81,6.995c0.652,2.316 1.255,4.582 1.81,6.8c0.554,2.217 0.831,4.337 0.831,6.359c0,1.239 -0.147,2.43 -0.44,3.571c-0.294,1.142 -0.799,2.234 -1.516,3.278c0.717,1.043 1.222,2.136 1.516,3.277c0.293,1.142 0.44,2.332 0.44,3.571c0,2.022 -0.277,4.142 -0.831,6.36c-0.555,2.217 -1.158,4.484 -1.81,6.799c-0.653,2.316 -1.256,4.648 -1.81,6.996c-0.555,2.348 -0.832,4.696 -0.832,7.044c0,1.37 0.131,2.642 0.391,3.816c0.261,1.174 0.685,2.201 1.272,3.082c0.587,0.88 1.386,1.565 2.397,2.054c1.011,0.489 2.267,0.734 3.767,0.734c0.457,0 0.929,-0.049 1.419,-0.147c0.489,-0.098 0.994,-0.179 1.516,-0.244l0,4.598Z" style="fill-rule:nonzero;"/><path d="M225.272,183.447l0,52.831c0,0.653 0.032,1.468 0.098,2.446c0.065,0.979 0.244,1.941 0.538,2.887c0.293,0.945 0.734,1.761 1.321,2.445c0.587,0.685 1.402,1.028 2.446,1.028c3.196,0 5.544,-3.555 7.044,-10.664l3.62,0c-0.718,4.109 -1.631,7.354 -2.74,9.734c-1.109,2.381 -2.283,4.191 -3.522,5.43c-1.239,1.24 -2.511,2.039 -3.815,2.397c-1.305,0.359 -2.479,0.538 -3.523,0.538c-2.282,0 -4.141,-0.44 -5.576,-1.32c-1.435,-0.881 -2.577,-2.006 -3.425,-3.376c-0.847,-1.37 -1.435,-2.902 -1.761,-4.598c-0.326,-1.696 -0.489,-3.327 -0.489,-4.892l0,-53.517l9.784,-1.369Z" style="fill:#dd4000;fill-rule:nonzero;"/><path d="M272.625,203.014l0,33.264c0,0.653 0.032,1.468 0.098,2.446c0.065,0.979 0.244,1.941 0.538,2.887c0.293,0.945 0.734,1.761 1.321,2.445c0.587,0.685 1.402,1.028 2.446,1.028c3.196,0 5.544,-3.555 7.044,-10.664l3.62,0c-0.718,4.109 -1.631,7.354 -2.74,9.734c-1.109,2.381 -2.283,4.191 -3.522,5.43c-1.239,1.24 -2.511,2.039 -3.815,2.397c-1.305,0.359 -2.479,0.538 -3.523,0.538c-1.5,0 -2.788,-0.261 -3.864,-0.782c-1.076,-0.522 -1.989,-1.207 -2.74,-2.055c-0.75,-0.848 -1.353,-1.826 -1.81,-2.935c-0.456,-1.109 -0.815,-2.283 -1.076,-3.522c-0.978,2.544 -2.56,4.729 -4.745,6.555c-2.185,1.826 -4.843,2.739 -7.974,2.739c-1.956,0 -3.929,-0.391 -5.919,-1.174c-1.989,-0.782 -3.783,-2.071 -5.381,-3.864c-1.598,-1.794 -2.902,-4.109 -3.913,-6.947c-1.011,-2.837 -1.517,-6.31 -1.517,-10.419c0,-3.001 0.343,-6.131 1.028,-9.393c0.685,-3.261 1.777,-6.229 3.277,-8.903c1.5,-2.674 3.424,-4.892 5.773,-6.653c2.348,-1.761 5.185,-2.641 8.511,-2.641c0.783,0 1.615,0.081 2.495,0.244c0.881,0.163 1.729,0.441 2.544,0.832c0.815,0.391 1.582,0.929 2.299,1.614c0.718,0.685 1.305,1.517 1.761,2.495l0,-4.696l9.784,0Zm-18.296,42.07c0.979,0 1.973,-0.277 2.984,-0.832c1.011,-0.554 1.925,-1.304 2.74,-2.25c0.815,-0.946 1.484,-2.071 2.006,-3.375c0.521,-1.305 0.782,-2.707 0.782,-4.207l0,-22.307c-0.456,-1.044 -1.158,-2.006 -2.103,-2.886c-0.946,-0.881 -2.169,-1.321 -3.669,-1.321c-2.087,0 -3.881,0.701 -5.381,2.103c-1.5,1.403 -2.707,3.164 -3.62,5.283c-0.913,2.12 -1.582,4.436 -2.006,6.947c-0.424,2.511 -0.636,4.908 -0.636,7.191c0,5.609 0.767,9.621 2.299,12.034c1.533,2.413 3.735,3.62 6.604,3.62Z" style="fill:#dd4000;fill-rule:nonzero;"/><path d="M293.758,203.014l0,6.751c1.695,-3.131 3.489,-5.12 5.381,-5.968c1.891,-0.848 3.685,-1.272 5.381,-1.272c1.696,0 3.179,0.228 4.451,0.685c1.272,0.456 2.365,1.076 3.278,1.859c0.913,0.782 1.679,1.695 2.299,2.739c0.62,1.044 1.125,2.185 1.516,3.424c0.914,-1.956 1.859,-3.506 2.838,-4.647c0.978,-1.141 1.956,-2.022 2.935,-2.642c0.978,-0.619 1.94,-1.011 2.886,-1.174c0.946,-0.163 1.81,-0.244 2.593,-0.244c2.935,0 5.299,0.554 7.093,1.663c1.793,1.109 3.147,2.527 4.06,4.256c0.913,1.728 1.517,3.62 1.81,5.674c0.294,2.055 0.44,4.028 0.44,5.92c0,1.174 -0.032,2.462 -0.098,3.864c-0.065,1.402 -0.13,2.837 -0.195,4.305c-0.065,1.467 -0.131,2.935 -0.196,4.403c-0.065,1.467 -0.098,2.821 -0.098,4.06c0,0.522 0.033,1.255 0.098,2.201c0.065,0.946 0.228,1.875 0.489,2.788c0.261,0.914 0.685,1.713 1.272,2.397c0.587,0.685 1.435,1.028 2.544,1.028c1.5,0 2.854,-0.848 4.06,-2.544c1.207,-1.696 2.201,-4.403 2.984,-8.12l3.62,0c-0.717,4.109 -1.63,7.354 -2.739,9.734c-1.109,2.381 -2.283,4.191 -3.522,5.43c-1.24,1.24 -2.479,2.039 -3.718,2.397c-1.239,0.359 -2.381,0.538 -3.425,0.538c-2.087,0 -3.848,-0.407 -5.283,-1.223c-1.435,-0.815 -2.609,-1.907 -3.522,-3.277c-0.913,-1.37 -1.582,-2.968 -2.005,-4.794c-0.424,-1.826 -0.636,-3.718 -0.636,-5.675c0,-0.587 0.016,-1.679 0.049,-3.277l0.195,-10.322c0.033,-1.631 0.049,-2.772 0.049,-3.424c0,-2.087 -0.163,-3.816 -0.489,-5.186c-0.326,-1.369 -0.783,-2.446 -1.37,-3.228c-0.587,-0.783 -1.255,-1.337 -2.005,-1.663c-0.751,-0.327 -1.55,-0.49 -2.397,-0.49c-2.022,0 -3.669,0.816 -4.941,2.446c-1.272,1.631 -2.169,4.37 -2.691,8.219l0,31.307l-9.783,0l0,-32.677c0,-1.174 -0.049,-2.316 -0.147,-3.424c-0.098,-1.109 -0.343,-2.104 -0.734,-2.984c-0.391,-0.881 -0.946,-1.582 -1.663,-2.104c-0.718,-0.522 -1.696,-0.783 -2.935,-0.783c-2.087,0 -3.669,0.865 -4.745,2.593c-1.077,1.728 -2.071,4.419 -2.984,8.072l0,31.307l-9.784,0l0,-48.918l9.784,0Z" style="fill:#dd4000;fill-rule:nonzero;"/><path d="M351.873,184.816l9.783,-1.369l0,23.187c1.109,-1.109 2.414,-2.022 3.914,-2.74c1.5,-0.717 3.294,-1.076 5.381,-1.076c1.761,0 3.587,0.31 5.479,0.93c1.891,0.619 3.652,1.712 5.283,3.277c1.631,1.566 2.968,3.718 4.011,6.457c1.044,2.74 1.566,6.229 1.566,10.469c0,3.718 -0.441,7.305 -1.321,10.762c-0.881,3.457 -2.218,6.506 -4.011,9.148c-1.794,2.641 -4.028,4.745 -6.702,6.31c-2.675,1.566 -5.805,2.348 -9.393,2.348c-2.022,0 -3.897,-0.309 -5.625,-0.929c-1.729,-0.62 -3.213,-1.631 -4.452,-3.033c-1.239,-1.402 -2.217,-3.261 -2.935,-5.577c-0.717,-2.315 -1.076,-5.169 -1.076,-8.56l0.098,-49.604Zm26.709,41.385c0,-2.543 -0.228,-4.924 -0.685,-7.142c-0.456,-2.217 -1.125,-4.158 -2.005,-5.821c-0.881,-1.663 -1.957,-2.968 -3.229,-3.914c-1.272,-0.945 -2.723,-1.418 -4.354,-1.418c-1.304,0 -2.511,0.31 -3.62,0.929c-1.109,0.62 -2.119,1.419 -3.033,2.397l0,25.731c0,5.871 1.924,8.806 5.773,8.806c1.826,0 3.44,-0.538 4.843,-1.615c1.402,-1.076 2.576,-2.527 3.522,-4.353c0.946,-1.827 1.647,-3.914 2.103,-6.262c0.457,-2.348 0.685,-4.794 0.685,-7.338Z" style="fill:#dd4000;fill-rule:nonzero;"/><path d="M423.294,215.244c0,4.565 -1.876,8.381 -5.626,11.446c-3.75,3.066 -8.952,4.958 -15.605,5.675c0.261,2.609 0.734,4.729 1.419,6.359c0.684,1.631 1.516,2.919 2.494,3.865c0.979,0.946 2.104,1.598 3.376,1.957c1.272,0.358 2.592,0.538 3.962,0.538c3.131,0 6.066,-0.816 8.806,-2.446c2.739,-1.631 4.957,-4.37 6.652,-8.218l3.131,0c-0.848,2.413 -2.022,4.712 -3.522,6.897c-1.5,2.185 -3.261,4.109 -5.283,5.772c-2.022,1.664 -4.207,2.984 -6.555,3.963c-2.348,0.978 -4.762,1.467 -7.24,1.467c-2.283,0 -4.484,-0.391 -6.604,-1.174c-2.12,-0.782 -3.995,-2.071 -5.626,-3.864c-1.63,-1.794 -2.951,-4.126 -3.962,-6.996c-1.011,-2.869 -1.517,-6.392 -1.517,-10.566c0,-2.739 0.31,-5.707 0.93,-8.903c0.62,-3.196 1.663,-6.164 3.131,-8.903c1.467,-2.74 3.391,-5.023 5.772,-6.849c2.381,-1.826 5.332,-2.739 8.854,-2.739c1.631,0 3.213,0.179 4.745,0.538c1.533,0.359 2.919,1.011 4.158,1.957c1.24,0.945 2.234,2.234 2.984,3.864c0.751,1.631 1.126,3.751 1.126,6.36Zm-21.329,13.305c4.631,-0.717 8.3,-2.348 11.007,-4.891c2.707,-2.544 4.06,-5.675 4.06,-9.393c0,-2.478 -0.424,-4.256 -1.272,-5.332c-0.848,-1.076 -2.054,-1.614 -3.62,-1.614c-1.696,0 -3.18,0.652 -4.451,1.957c-1.272,1.304 -2.332,2.984 -3.18,5.038c-0.848,2.055 -1.484,4.338 -1.908,6.849c-0.424,2.511 -0.636,4.973 -0.636,7.386Z" style="fill:#dd4000;fill-rule:nonzero;"/><path d="M438.458,203.014l0,8.218c0.783,-1.174 1.549,-2.283 2.299,-3.326c0.751,-1.044 1.582,-1.957 2.495,-2.74c0.913,-0.782 1.924,-1.418 3.033,-1.907c1.109,-0.49 2.348,-0.734 3.718,-0.734c2.218,0 3.848,0.57 4.892,1.712c1.043,1.141 1.565,2.527 1.565,4.158c0,0.978 -0.163,1.794 -0.489,2.446c-0.326,0.652 -0.717,1.174 -1.174,1.565c-0.457,0.392 -0.946,0.669 -1.468,0.832c-0.521,0.163 -0.978,0.244 -1.369,0.244c-0.587,0 -1.06,-0.13 -1.419,-0.391c-0.359,-0.261 -0.717,-0.538 -1.076,-0.831c-0.359,-0.294 -0.766,-0.571 -1.223,-0.832c-0.457,-0.261 -1.044,-0.391 -1.761,-0.391c-1.5,0 -2.935,0.521 -4.305,1.565c-1.37,1.044 -2.609,2.152 -3.718,3.326l0,36.004l-9.783,0l0,-48.918l9.783,0Z" style="fill:#dd4000;fill-rule:nonzero;"/><path d="M471.429,188.143l0,14.871l7.534,0l0,3.424l-7.534,0l0,29.84c0,0.783 0.017,1.68 0.049,2.691c0.033,1.011 0.196,1.973 0.489,2.886c0.294,0.913 0.718,1.68 1.272,2.299c0.555,0.62 1.386,0.93 2.495,0.93c0.522,0 1.158,-0.065 1.908,-0.196c0.75,-0.13 1.321,-0.261 1.712,-0.391c0.065,0.326 0.114,0.619 0.147,0.88c0.032,0.261 0.049,0.555 0.049,0.881c0,1.109 -0.245,2.071 -0.734,2.886c-0.489,0.815 -1.125,1.468 -1.908,1.957c-0.783,0.489 -1.663,0.848 -2.641,1.076c-0.979,0.228 -1.957,0.342 -2.936,0.342c-1.956,0 -3.554,-0.407 -4.794,-1.223c-1.239,-0.815 -2.234,-1.891 -2.984,-3.228c-0.75,-1.337 -1.255,-2.821 -1.516,-4.452c-0.261,-1.63 -0.391,-3.261 -0.391,-4.892l0,-32.286l-3.327,0l0,-3.424l3.327,0l0,-13.502l9.783,-1.369Z" style="fill:#dd4000;fill-rule:nonzero;"/><path d="M482.974,270.424c0.522,0.065 1.011,0.146 1.468,0.244c0.456,0.098 0.913,0.147 1.369,0.147c3.001,0 5.055,-0.93 6.164,-2.788c1.109,-1.859 1.663,-4.159 1.663,-6.898c0,-2.348 -0.277,-4.696 -0.831,-7.044c-0.555,-2.348 -1.158,-4.68 -1.81,-6.996c-0.653,-2.315 -1.256,-4.582 -1.81,-6.799c-0.555,-2.218 -0.832,-4.338 -0.832,-6.36c0,-1.239 0.147,-2.429 0.44,-3.571c0.294,-1.141 0.799,-2.234 1.517,-3.277c-0.718,-1.044 -1.223,-2.136 -1.517,-3.278c-0.293,-1.141 -0.44,-2.332 -0.44,-3.571c0,-2.022 0.277,-4.142 0.832,-6.359c0.554,-2.218 1.157,-4.484 1.81,-6.8c0.652,-2.315 1.255,-4.647 1.81,-6.995c0.554,-2.348 0.831,-4.696 0.831,-7.044c0,-2.74 -0.554,-5.039 -1.663,-6.898c-1.109,-1.859 -3.163,-2.788 -6.164,-2.788c-0.456,0 -0.929,0.049 -1.418,0.147c-0.49,0.097 -0.995,0.179 -1.517,0.244l0,-4.598c1.37,-0.392 2.805,-0.587 4.305,-0.587c2.283,0 4.191,0.456 5.723,1.369c1.533,0.914 2.772,2.055 3.718,3.425c0.946,1.369 1.615,2.886 2.006,4.549c0.391,1.663 0.587,3.278 0.587,4.843c0,2.087 -0.277,4.24 -0.832,6.457c-0.554,2.218 -1.157,4.419 -1.81,6.604c-0.652,2.185 -1.255,4.321 -1.81,6.409c-0.554,2.087 -0.831,4.044 -0.831,5.87c0,0.783 0.065,1.565 0.195,2.348c0.131,0.783 0.392,1.484 0.783,2.103c0.391,0.62 0.913,1.126 1.565,1.517c0.653,0.391 1.501,0.587 2.544,0.587c0.848,0 1.859,-0.098 3.033,-0.294l0,5.479c-1.174,-0.195 -2.185,-0.293 -3.033,-0.293c-1.043,0 -1.891,0.195 -2.544,0.587c-0.652,0.391 -1.174,0.897 -1.565,1.516c-0.391,0.62 -0.652,1.321 -0.783,2.104c-0.13,0.782 -0.195,1.565 -0.195,2.348c0,1.891 0.277,3.864 0.831,5.919c0.555,2.054 1.158,4.174 1.81,6.359c0.653,2.185 1.256,4.387 1.81,6.604c0.555,2.218 0.832,4.37 0.832,6.458c0,1.565 -0.196,3.179 -0.587,4.842c-0.391,1.664 -1.06,3.18 -2.006,4.55c-0.946,1.37 -2.185,2.511 -3.718,3.424c-1.532,0.913 -3.44,1.37 -5.723,1.37c-1.435,0 -2.837,-0.196 -4.207,-0.587l0,-4.598Z" style="fill-rule:nonzero;"/></g><g><path d="M158.99,307.55l0,22.885c0,2.198 0.381,3.758 1.144,4.678c0.763,0.92 1.727,1.379 2.894,1.379c0.628,0 1.257,-0.168 1.885,-0.504c0.628,-0.337 1.189,-0.819 1.682,-1.447c0.494,-0.629 0.898,-1.391 1.212,-2.289c0.314,-0.897 0.471,-1.929 0.471,-3.096l0,-21.606l6.731,0l0,22.885c0,0.763 0.045,1.503 0.135,2.221c0.089,0.718 0.28,1.357 0.572,1.918c0.291,0.561 0.695,1.021 1.211,1.38c0.516,0.359 1.178,0.538 1.986,0.538c1.391,0 2.558,-0.504 3.5,-1.514c0.942,-1.01 1.716,-2.322 2.322,-3.937c0.606,-1.616 1.043,-3.422 1.312,-5.419c0.27,-1.997 0.404,-3.982 0.404,-5.956c0,-1.257 -0.045,-2.502 -0.134,-3.736c-0.09,-1.234 -0.247,-2.345 -0.471,-3.332c-0.225,0.225 -0.517,0.37 -0.875,0.438c-0.359,0.067 -0.651,0.101 -0.875,0.101c-1.077,0 -1.885,-0.382 -2.424,-1.145c-0.538,-0.762 -0.807,-1.57 -0.807,-2.423c0,-0.897 0.291,-1.694 0.875,-2.389c0.583,-0.696 1.436,-1.043 2.557,-1.043c0.763,0 1.492,0.224 2.188,0.673c0.695,0.448 1.301,1.155 1.817,2.12c0.516,0.965 0.92,2.232 1.212,3.803c0.291,1.57 0.437,3.5 0.437,5.788c0,2.558 -0.213,5.194 -0.639,7.909c-0.426,2.715 -1.133,5.194 -2.12,7.437c-0.988,2.244 -2.266,4.095 -3.837,5.553c-1.57,1.459 -3.522,2.188 -5.856,2.188c-1.75,0 -3.41,-0.449 -4.98,-1.346c-1.571,-0.898 -2.738,-2.199 -3.5,-3.904c-0.898,1.84 -1.986,3.175 -3.265,4.005c-1.279,0.83 -2.614,1.245 -4.005,1.245c-1.301,0 -2.535,-0.18 -3.702,-0.539c-1.166,-0.359 -2.176,-0.953 -3.028,-1.783c-0.853,-0.83 -1.526,-1.907 -2.02,-3.231c-0.493,-1.324 -0.74,-2.95 -0.74,-4.88l0,-23.625l6.731,0Z" style="fill-rule:nonzero;"/><path d="M215.259,315.964c0,3.141 -1.29,5.766 -3.87,7.875c-2.58,2.109 -6.159,3.41 -10.736,3.903c0.18,1.795 0.505,3.254 0.976,4.375c0.471,1.122 1.043,2.008 1.717,2.659c0.673,0.651 1.447,1.099 2.322,1.346c0.875,0.247 1.783,0.37 2.726,0.37c2.153,0 4.173,-0.56 6.057,-1.682c1.885,-1.122 3.411,-3.007 4.577,-5.654l2.154,0c-0.583,1.66 -1.391,3.242 -2.423,4.745c-1.032,1.503 -2.244,2.827 -3.635,3.971c-1.391,1.145 -2.894,2.053 -4.509,2.726c-1.616,0.673 -3.276,1.01 -4.981,1.01c-1.571,0 -3.085,-0.269 -4.543,-0.808c-1.459,-0.538 -2.749,-1.425 -3.87,-2.659c-1.122,-1.233 -2.031,-2.838 -2.726,-4.812c-0.696,-1.974 -1.044,-4.397 -1.044,-7.269c0,-1.885 0.213,-3.927 0.64,-6.125c0.426,-2.199 1.144,-4.241 2.154,-6.125c1.009,-1.885 2.333,-3.455 3.971,-4.712c1.638,-1.256 3.668,-1.884 6.091,-1.884c1.122,0 2.21,0.123 3.265,0.37c1.054,0.247 2.008,0.695 2.86,1.346c0.853,0.651 1.537,1.537 2.053,2.659c0.516,1.121 0.774,2.58 0.774,4.375Zm-14.673,9.153c3.186,-0.493 5.71,-1.615 7.572,-3.365c1.862,-1.75 2.793,-3.904 2.793,-6.462c0,-1.705 -0.291,-2.927 -0.875,-3.668c-0.583,-0.74 -1.413,-1.11 -2.49,-1.11c-1.167,0 -2.188,0.448 -3.063,1.346c-0.875,0.897 -1.604,2.053 -2.187,3.466c-0.583,1.414 -1.021,2.984 -1.313,4.712c-0.291,1.727 -0.437,3.421 -0.437,5.081Z" style="fill-rule:nonzero;"/><path d="M219.028,295.031l6.731,-0.942l0,15.951c0.763,-0.762 1.66,-1.391 2.692,-1.884c1.032,-0.494 2.266,-0.741 3.702,-0.741c1.212,0 2.468,0.214 3.77,0.64c1.301,0.426 2.512,1.178 3.634,2.255c1.122,1.077 2.042,2.557 2.76,4.442c0.718,1.885 1.077,4.285 1.077,7.202c0,2.558 -0.303,5.026 -0.909,7.404c-0.606,2.378 -1.526,4.476 -2.76,6.293c-1.234,1.817 -2.77,3.265 -4.61,4.341c-1.84,1.077 -3.994,1.616 -6.462,1.616c-1.391,0 -2.681,-0.213 -3.87,-0.64c-1.189,-0.426 -2.21,-1.121 -3.062,-2.086c-0.853,-0.965 -1.526,-2.244 -2.02,-3.837c-0.493,-1.593 -0.74,-3.556 -0.74,-5.889l0.067,-34.125Zm18.375,28.471c0,-1.75 -0.157,-3.388 -0.471,-4.913c-0.314,-1.526 -0.774,-2.861 -1.38,-4.005c-0.605,-1.144 -1.346,-2.042 -2.221,-2.693c-0.875,-0.65 -1.873,-0.976 -2.995,-0.976c-0.897,0 -1.728,0.214 -2.49,0.64c-0.763,0.426 -1.459,0.976 -2.087,1.649l0,17.702c0,4.038 1.324,6.058 3.971,6.058c1.257,0 2.367,-0.371 3.332,-1.111c0.965,-0.74 1.772,-1.739 2.423,-2.995c0.651,-1.257 1.133,-2.692 1.447,-4.308c0.314,-1.615 0.471,-3.298 0.471,-5.048Z" style="fill-rule:nonzero;"/><path d="M286.403,307.55l0,22.885c0,0.448 0.023,1.009 0.068,1.682c0.045,0.674 0.168,1.335 0.37,1.986c0.202,0.651 0.505,1.212 0.909,1.683c0.403,0.471 0.964,0.706 1.682,0.706c2.199,0 3.814,-2.445 4.846,-7.336l2.491,0c-0.494,2.827 -1.122,5.059 -1.885,6.697c-0.763,1.638 -1.57,2.883 -2.423,3.736c-0.852,0.852 -1.727,1.402 -2.625,1.649c-0.897,0.246 -1.705,0.37 -2.423,0.37c-1.032,0 -1.918,-0.18 -2.659,-0.539c-0.74,-0.359 -1.368,-0.83 -1.884,-1.413c-0.516,-0.583 -0.931,-1.256 -1.245,-2.019c-0.315,-0.763 -0.561,-1.571 -0.741,-2.423c-0.673,1.75 -1.761,3.253 -3.264,4.509c-1.503,1.257 -3.332,1.885 -5.486,1.885c-1.346,0 -2.703,-0.269 -4.072,-0.808c-1.369,-0.538 -2.603,-1.425 -3.702,-2.659c-1.099,-1.233 -1.997,-2.826 -2.692,-4.778c-0.696,-1.952 -1.043,-4.342 -1.043,-7.169c0,-2.064 0.235,-4.218 0.706,-6.461c0.471,-2.244 1.223,-4.285 2.255,-6.125c1.032,-1.84 2.356,-3.366 3.971,-4.577c1.616,-1.212 3.568,-1.817 5.856,-1.817c0.538,0 1.111,0.056 1.716,0.168c0.606,0.112 1.189,0.303 1.75,0.572c0.561,0.269 1.088,0.639 1.582,1.111c0.494,0.471 0.898,1.043 1.212,1.716l0,-3.231l6.73,0Zm-12.586,28.942c0.673,0 1.357,-0.19 2.053,-0.572c0.695,-0.381 1.323,-0.897 1.884,-1.548c0.561,-0.65 1.021,-1.424 1.38,-2.322c0.359,-0.897 0.539,-1.862 0.539,-2.894l0,-15.346c-0.314,-0.718 -0.797,-1.38 -1.448,-1.986c-0.65,-0.606 -1.491,-0.909 -2.524,-0.909c-1.435,0 -2.669,0.483 -3.701,1.448c-1.033,0.964 -1.863,2.176 -2.491,3.634c-0.628,1.459 -1.088,3.052 -1.38,4.779c-0.291,1.728 -0.437,3.377 -0.437,4.947c0,3.859 0.527,6.619 1.582,8.279c1.054,1.66 2.568,2.49 4.543,2.49Z" style="fill-rule:nonzero;"/><path d="M301.009,305.06l0,5.182c0.853,-0.897 1.851,-1.626 2.995,-2.187c1.145,-0.561 2.48,-0.841 4.005,-0.841c1.571,0 3.029,0.336 4.375,1.009c1.346,0.673 2.524,1.694 3.534,3.063c1.009,1.368 1.806,3.096 2.389,5.182c0.584,2.087 0.875,4.566 0.875,7.438c0,5.609 -1.054,9.961 -3.163,13.058c-2.109,3.096 -4.914,4.644 -8.414,4.644c-1.48,0 -2.748,-0.281 -3.803,-0.841c-1.054,-0.561 -1.985,-1.358 -2.793,-2.39l0,17.971l-6.798,1.683l0,-52.971l6.798,0Zm4.644,6.529c-0.987,0 -1.873,0.28 -2.658,0.841c-0.785,0.561 -1.447,1.357 -1.986,2.389l0,20.193c0.628,0.807 1.335,1.391 2.12,1.75c0.786,0.359 1.56,0.538 2.323,0.538c1.121,0 2.108,-0.359 2.961,-1.077c0.853,-0.718 1.582,-1.694 2.188,-2.928c0.605,-1.234 1.065,-2.681 1.379,-4.341c0.314,-1.66 0.472,-3.433 0.472,-5.317c0,-2.334 -0.214,-4.274 -0.64,-5.822c-0.426,-1.549 -0.976,-2.783 -1.649,-3.702c-0.673,-0.92 -1.413,-1.571 -2.221,-1.952c-0.808,-0.382 -1.571,-0.572 -2.289,-0.572Z" style="fill-rule:nonzero;"/><path d="M329.48,305.06l0,5.182c0.853,-0.897 1.851,-1.626 2.996,-2.187c1.144,-0.561 2.479,-0.841 4.004,-0.841c1.571,0 3.029,0.336 4.375,1.009c1.347,0.673 2.524,1.694 3.534,3.063c1.01,1.368 1.806,3.096 2.39,5.182c0.583,2.087 0.875,4.566 0.875,7.438c0,5.609 -1.055,9.961 -3.164,13.058c-2.109,3.096 -4.913,4.644 -8.413,4.644c-1.481,0 -2.749,-0.281 -3.803,-0.841c-1.055,-0.561 -1.986,-1.358 -2.794,-2.39l0,17.971l-6.798,1.683l0,-52.971l6.798,0Zm4.645,6.529c-0.988,0 -1.874,0.28 -2.659,0.841c-0.785,0.561 -1.447,1.357 -1.986,2.389l0,20.193c0.629,0.807 1.335,1.391 2.121,1.75c0.785,0.359 1.559,0.538 2.322,0.538c1.122,0 2.109,-0.359 2.961,-1.077c0.853,-0.718 1.582,-1.694 2.188,-2.928c0.606,-1.234 1.065,-2.681 1.38,-4.341c0.314,-1.66 0.471,-3.433 0.471,-5.317c0,-2.334 -0.213,-4.274 -0.64,-5.822c-0.426,-1.549 -0.976,-2.783 -1.649,-3.702c-0.673,-0.92 -1.413,-1.571 -2.221,-1.952c-0.808,-0.382 -1.57,-0.572 -2.288,-0.572Z" style="fill-rule:nonzero;"/></g></svg>